<?xml version="1.0" encoding="utf-8"?>
<!-- Generator: Adobe Illustrator 25.2.0, SVG Export Plug-In . SVG Version: 6.00 Build 0)  -->
<svg version="1.1" id="Layer_1" xmlns="http://www.w3.org/2000/svg" xmlns:xlink="http://www.w3.org/1999/xlink" x="0px" y="0px"
	 viewBox="0 0 256 256" style="enable-background:new 0 0 256 256;" xml:space="preserve">
<style type="text/css">
	.st0{opacity:0.2;fill:#D1D3D4;}
	.st1{fill:#021628;}
	.st2{fill:#FFBC00;}
	.st3{opacity:0.3;}
</style>
<path class="st0" d="M303.2,140.8c-0.6-1.1-1.5-2.1-2.6-3l-0.9-0.9h-0.2c-21.1-17-46.5-28.1-73.4-32.1c-29-4.3-58.5-0.1-85,11.7
	c15-16.4,33.5-29.3,54.4-37.8c26.1-10.5,54.5-13.4,82.1-8.4l0,0l0.9,0.2c1.9,0.3,3.9,0.1,5.7-0.7c2.7-1.1,4.9-3.2,6-5.9
	c1.2-2.7,1.2-5.7,0.1-8.4c-0.9-2.3-2.6-4.3-4.8-5.5c-1.1-0.6-2.4-1-3.8-1.3l-0.5-0.1l-0.6-0.2l-0.2,0.1c-26.8-4-54.4-0.8-79.7,9.4
	c-27,10.9-50.2,29.2-67,52.6c4.9-21.5,14.6-41.6,28.5-59.2c17.5-22,40.7-38.6,67.2-47.8l1-0.3c1.8-0.7,3.5-1.9,4.7-3.4
	c3.8-4.8,3-11.7-1.8-15.5c-2-1.6-4.4-2.4-6.9-2.4c-1.3,0-2.6,0.3-3.9,0.8l-0.4,0.2l-0.5,0.1l-0.2,0.2c-25.4,9.8-47.7,26.2-64.7,47.6
	c-18.2,22.9-29.4,50.6-32.3,79.4c-6.7-21.2-8.7-43.6-5.5-65.9c4-27.8,15.6-53.8,33.7-75.2l0.7-0.9v0c1.2-1.5,2-3.3,2.2-5.2
	c0.4-2.9-0.3-5.8-2.1-8.2c-1.8-2.3-4.3-3.9-7.3-4.3c-2.5-0.4-5,0.1-7.2,1.4c-1.1,0.6-2.1,1.5-3,2.6l-0.3,0.4l-0.4,0.3l-0.1,0.3
	c-17,21.2-28,46.7-31.8,73.8c-4.1,28.8,0.2,58,12,84.3c-16.1-15-28.8-33.4-37-54.2C68,33,65.3,4.7,70.4-22.8l0,0l0.1-0.9l0-0.2
	c0.3-1.9,0.1-3.9-0.6-5.7c-1.1-2.8-3.2-4.9-5.9-6.1c-2.7-1.2-5.7-1.2-8.4-0.1c-2.3,0.9-4.3,2.6-5.5,4.8c-0.6,1.1-1.1,2.4-1.3,3.7
	L48.8-27l-0.2,0.4l0.1,0.4c-4.3,26.8-1.2,54.5,8.8,79.9c10.7,27.2,29.1,50.7,52.6,67.7c-21.7-4.7-42.1-14.3-59.9-28.2
	C28.1,75.9,11.4,52.8,1.9,26.5l-0.3-0.9l-0.1-0.2c-0.7-1.8-1.9-3.4-3.5-4.7c-2.3-1.8-5.2-2.6-8.1-2.3c-2.9,0.4-5.5,1.8-7.4,4.1
	c-1.5,2-2.4,4.4-2.3,6.9c0,1.3,0.3,2.6,0.8,3.9l0.2,0.5l0.1,0.4l0.1,0.2C-8.6,59.9,8,82.2,29.5,99.1c19.5,15.3,42.3,25.5,66.3,30
	c4.2,0.8,8.5,1.4,12.7,1.8c-21.1,6.5-43.3,8.2-65.4,4.9c-27.8-4.2-53.8-16-75-34.2l-0.8-0.7c-1.5-1.2-3.4-2.1-5.3-2.3
	c-2.9-0.4-5.8,0.3-8.2,2.1c-2.4,1.8-3.9,4.3-4.3,7.2c-0.4,2.5,0.1,5,1.4,7.2c0.6,1.1,1.5,2.1,2.6,3l0.4,0.4l0.4,0.4l0.2,0
	c19.7,15.9,43.1,26.7,68,31.3c1.8,0.3,3.7,0.7,5.6,0.9c29,4.3,58.5,0.1,85-11.7c-15,16.4-33.5,29.4-54.4,37.8
	c-26.1,10.5-54.5,13.4-82.1,8.4l0,0l-0.9-0.1c-1.9-0.3-3.9-0.1-5.8,0.7c-5.7,2.3-8.4,8.7-6.1,14.4c0.9,2.3,2.6,4.3,4.8,5.5
	c1.1,0.6,2.4,1.1,3.8,1.3l0.5,0.1l0.4,0.2l0.2-0.1c26.9,4.1,54.5,0.8,79.9-9.4c27-10.8,50.2-29.2,67-52.6
	c-4.9,21.5-14.6,41.6-28.5,59.1c-17.5,22-40.7,38.6-67.1,47.8l-1,0.3c-1.8,0.7-3.4,1.9-4.7,3.4c-3.8,4.8-3,11.7,1.8,15.5
	c1.4,1.1,3.1,1.9,4.8,2.2c0.7,0.1,1.4,0.2,2.1,0.2c1.3,0,2.6-0.3,3.9-0.8l0.4-0.2l0.4,0l0.2-0.2c25.4-9.8,47.8-26.2,64.8-47.6
	c18.2-22.9,29.4-50.6,32.3-79.4c6.7,21.2,8.7,43.6,5.5,65.9c-4,27.8-15.6,53.8-33.7,75.2l-0.7,0.9v0c-1.2,1.5-2,3.3-2.2,5.2
	c-0.4,2.9,0.3,5.8,2.1,8.2c1.7,2.2,4.1,3.7,6.8,4.2c0.1,0,0.3,0.1,0.5,0.1c2.5,0.3,5-0.2,7.2-1.4c1.1-0.6,2.1-1.5,3-2.6l0.3-0.4
	l0.4-0.3l0.1-0.3c17-21.2,27.9-46.7,31.8-73.8c4.1-28.7-0.2-58-12-84.3c16.1,15,28.7,33.4,36.9,54.2c10.3,26.1,13.1,54.5,7.9,82l0,0
	l-0.1,0.9l0,0.2c-0.3,1.9-0.1,3.9,0.6,5.7c1.1,2.8,3.2,4.9,5.9,6.1c0.8,0.3,1.6,0.6,2.4,0.7c2,0.4,4.1,0.2,6.1-0.6
	c2.3-0.9,4.3-2.6,5.5-4.8c0.6-1.1,1.1-2.4,1.3-3.7l0.1-0.4l0.2-0.4l-0.1-0.3c4.3-26.9,1.2-54.5-8.8-80
	c-10.8-27.2-29.1-50.7-52.7-67.7c21.7,4.7,42.1,14.3,59.9,28.2c22.2,17.3,38.9,40.4,48.3,66.8l0.4,1c0.7,1.8,1.9,3.4,3.4,4.6
	c1.4,1.1,3.1,1.8,4.8,2.2c3.9,0.7,8.1-0.7,10.7-4c1.5-2,2.4-4.4,2.3-6.9c0-1.3-0.3-2.6-0.8-3.9l-0.2-0.4l-0.1-0.6l-0.2-0.2
	c-9.9-25.3-26.5-47.5-48-64.3c-22.9-17.9-50.3-28.8-79-31.7c21-6.4,43.3-8.1,65.4-4.9c27.9,4.2,53.8,16,75,34.2l0.8,0.7
	c1.5,1.2,3.3,2,5.3,2.3c2.9,0.4,5.8-0.3,8.2-2.1c2.4-1.8,3.9-4.3,4.3-7.2C305,145.5,304.5,142.9,303.2,140.8z"/>
<g>
	<g>
		<g>
			<path class="st1" d="M135.5,127.6h29.1l4.1-22.9h-29.1l6.3-36.4h-27.8l-6.4,36.3H90.6l-4.1,22.9h21.1l-10.3,58.7
				c-3.9,22.3,5.3,35.5,28.6,35.5c8.3,0,16.2-1.1,24.3-3.1l4.1-23.4c-7.8,0.9-12.5,1.1-18.2,1.1c-8.9,0-12.3-3.8-10.6-12.7
				L135.5,127.6z"/>
		</g>
		<g>
			<path class="st2" d="M188.8,50.7c-0.4,2-1.5,4-3,5.4c-1.4,1.4-3.4,2.5-5.4,2.9c-1.7,0.3-3.3,0.2-4.6-0.3c-1.3-0.5-2.1-1.1-3-1.7
				c-5-4-10.5-7.1-16.4-9.5c-0.8-0.3-1.6-0.6-2.6-0.9c-0.5-0.2-3.1-1-3.4-1.1c-5.9-1.7-12.2-2.7-18.4-2.7c-12.3,0-24.2,3.4-34.6,9.8
				c-2.7,1.4-5.4,3.1-8.2,4.8c-1.2,0.8-2.5,1.6-3.7,2.5c-0.4,0.3-0.9,0.4-1.4,0.4c-0.8,0-1.5-0.4-2-1c-0.4-0.6-0.5-1.4-0.3-2.1
				c0.3-0.7,0.9-1.4,1.5-1.9c0.2-0.2,0.4-0.4,0.6-0.6c0.9-1,1.7-1.8,2.7-2.7c1.7-1.7,3.6-3.4,5.3-4.8c3.6-3,7.4-5.7,11.2-8
				c3.8-2.2,7.8-4.2,11.7-5.7c4-1.5,8.2-2.7,12.4-3.4c4.3-0.8,8.6-1.2,12.9-1.2c15.3,0,25.7,3,36.8,7.5c2.8,1.1,5.1,2.2,7.3,3.5
				C187.6,41.8,189.7,46.4,188.8,50.7"/>
		</g>
	</g>
</g>
<g class="st3">
	<g>
	</g>
</g>
</svg>
